<svg xmlns="http://www.w3.org/2000/svg" version="1.1" xmlns:xlink="http://www.w3.org/1999/xlink" xmlns:svgjs="http://svgjs.dev/svgjs" viewBox="0 0 6.041153921646718 6.713151170508279"><g transform="matrix(1,0,0,1,0.5305436356280469,4.301982534880232)"><rect width="6.713151170508279" height="6.713151170508279" x="-0.8665422600588277" y="-4.301982534880232" fill="#3a868f"></rect><g><path d=" M 0.7335 0.1515000000000003 C 0.7335 0.09150000000000036 0.798 0.05700000000000016 0.798 0.0255000000000003 C 0.798 0.012000000000000233 0.786 2.220446049250313e-16 0.765 2.220446049250313e-16 L 0.501 2.220446049250313e-16 C 0.48 2.220446049250313e-16 0.468 0.012000000000000233 0.468 0.0255000000000003 C 0.468 0.05700000000000016 0.5325 0.09150000000000036 0.5325 0.1515000000000003 L 0.5325 0.5655000000000002 L 0.2955 0.6765000000000003 L 0.2955 0.1515000000000003 C 0.2955 0.09150000000000036 0.36 0.05700000000000016 0.36 0.0255000000000003 C 0.36 0.012000000000000233 0.34800000000000003 2.220446049250313e-16 0.327 2.220446049250313e-16 L 0.063 2.220446049250313e-16 C 0.042 2.220446049250313e-16 0.03 0.012000000000000233 0.03 0.0255000000000003 C 0.03 0.05700000000000016 0.0945 0.09150000000000036 0.0945 0.1515000000000003 L 0.0945 0.9810000000000003 C 0.0945 1.0410000000000004 0.03 1.0755000000000003 0.03 1.1070000000000002 C 0.03 1.1205000000000003 0.042 1.1325000000000003 0.063 1.1325000000000003 L 0.327 1.1325000000000003 C 0.34800000000000003 1.1325000000000003 0.36 1.1205000000000003 0.36 1.1070000000000002 C 0.36 1.0755000000000003 0.2955 1.0410000000000004 0.2955 0.9810000000000003 L 0.2955 0.8925000000000003 L 0.5325 0.7815000000000003 L 0.5325 0.9810000000000003 C 0.5325 1.0410000000000004 0.468 1.0755000000000003 0.468 1.1070000000000002 C 0.468 1.1205000000000003 0.48 1.1325000000000003 0.501 1.1325000000000003 L 0.765 1.1325000000000003 C 0.786 1.1325000000000003 0.798 1.1205000000000003 0.798 1.1070000000000002 C 0.798 1.0755000000000003 0.7335 1.0410000000000004 0.7335 0.9810000000000003 M 1.1265029296875 0.1515000000000003 C 1.1265029296875 0.09150000000000036 1.1910029296875 0.05700000000000016 1.1910029296875 0.0255000000000003 C 1.1910029296875 0.012000000000000233 1.1790029296875 2.220446049250313e-16 1.1580029296875 2.220446049250313e-16 L 0.8940029296875001 2.220446049250313e-16 C 0.8730029296875 2.220446049250313e-16 0.8610029296875 0.012000000000000233 0.8610029296875 0.0255000000000003 C 0.8610029296875 0.05700000000000016 0.9255029296875 0.09150000000000036 0.9255029296875 0.1515000000000003 L 0.9255029296875 0.9810000000000003 C 0.9255029296875 1.0410000000000004 0.8610029296875 1.0755000000000003 0.8610029296875 1.1070000000000002 C 0.8610029296875 1.1205000000000003 0.8730029296875 1.1325000000000003 0.8940029296875001 1.1325000000000003 L 1.1580029296875 1.1325000000000003 C 1.1790029296875 1.1325000000000003 1.1910029296875 1.1205000000000003 1.1910029296875 1.1070000000000002 C 1.1910029296875 1.0755000000000003 1.1265029296875 1.0410000000000004 1.1265029296875 0.9810000000000003 M 1.5195175781249999 0.9675000000000002 L 1.5195175781249999 0.7050000000000003 C 1.5195175781249999 0.6945000000000003 1.524017578125 0.6885000000000003 1.536017578125 0.6795000000000002 L 1.650017578125 0.6030000000000003 C 1.650017578125 0.6030000000000003 1.743017578125 0.6705000000000003 1.743017578125 0.6915000000000002 L 1.743017578125 0.9465000000000003 C 1.743017578125 0.9615000000000002 1.7370175781250001 0.9675000000000002 1.722017578125 0.9675000000000002 M 1.683017578125 0.16500000000000026 C 1.701017578125 0.16500000000000026 1.704017578125 0.16800000000000026 1.704017578125 0.18450000000000022 L 1.704017578125 0.34650000000000025 C 1.704017578125 0.3600000000000003 1.693517578125 0.3750000000000002 1.6785175781250001 0.3855000000000003 L 1.5195175781249999 0.48450000000000026 L 1.5195175781249999 0.16500000000000026 M 1.801517578125 1.1325000000000003 C 1.8780175781250001 1.1325000000000003 1.944017578125 1.0935000000000004 1.944017578125 1.0170000000000003 L 1.944017578125 0.6210000000000002 C 1.944017578125 0.5610000000000003 1.8660175781250001 0.5175000000000003 1.825517578125 0.4890000000000003 C 1.8555175781250002 0.46350000000000025 1.905017578125 0.4275000000000003 1.905017578125 0.3735000000000003 L 1.905017578125 0.14400000000000024 C 1.905017578125 0.05250000000000021 1.852517578125 2.220446049250313e-16 1.7415175781249999 2.220446049250313e-16 L 1.287017578125 2.220446049250313e-16 C 1.266017578125 2.220446049250313e-16 1.254017578125 0.012000000000000233 1.254017578125 0.0255000000000003 C 1.254017578125 0.05700000000000016 1.318517578125 0.09150000000000036 1.318517578125 0.1515000000000003 L 1.318517578125 0.9810000000000003 C 1.318517578125 1.0410000000000004 1.254017578125 1.0755000000000003 1.254017578125 1.1070000000000002 C 1.254017578125 1.1205000000000003 1.266017578125 1.1325000000000003 1.287017578125 1.1325000000000003 M 2.6400732421875 0.1515000000000003 C 2.6400732421875 0.09150000000000036 2.7045732421875 0.05700000000000016 2.7045732421875 0.0255000000000003 C 2.7045732421875 0.012000000000000233 2.6925732421874997 2.220446049250313e-16 2.6715732421875 2.220446049250313e-16 L 2.4075732421875 2.220446049250313e-16 C 2.3865732421874997 2.220446049250313e-16 2.3745732421875 0.012000000000000233 2.3745732421875 0.0255000000000003 C 2.3745732421875 0.05700000000000016 2.4390732421875 0.09150000000000036 2.4390732421875 0.1515000000000003 L 2.4390732421875 0.9570000000000003 C 2.4390732421875 0.9630000000000003 2.4345732421874997 0.9675000000000002 2.4285732421875 0.9675000000000002 L 2.2650732421875 0.9675000000000002 C 2.2590732421874997 0.9675000000000002 2.2545732421875 0.9630000000000003 2.2545732421875 0.9570000000000003 L 2.2545732421875 0.1515000000000003 C 2.2545732421875 0.09150000000000036 2.3190732421874998 0.05700000000000016 2.3190732421874998 0.0255000000000003 C 2.3190732421874998 0.012000000000000233 2.3070732421874998 2.220446049250313e-16 2.2860732421875 2.220446049250313e-16 L 2.0220732421875 2.220446049250313e-16 C 2.0010732421874997 2.220446049250313e-16 1.9890732421875 0.012000000000000233 1.9890732421875 0.0255000000000003 C 1.9890732421875 0.05700000000000016 2.0535732421875 0.09150000000000036 2.0535732421875 0.1515000000000003 L 2.0535732421875 1.0170000000000003 C 2.0535732421875 1.0950000000000002 2.1180732421874997 1.1325000000000003 2.1960732421875 1.1325000000000003 L 2.4915732421875 1.1325000000000003 C 2.5830732421875 1.1325000000000003 2.6400732421875 1.0695000000000003 2.6400732421875 1.0095000000000003 M 3.033116455078125 0.9675000000000002 L 3.033116455078125 0.16500000000000026 L 3.175616455078125 0.16500000000000026 C 3.187616455078125 0.16500000000000026 3.196616455078125 0.17400000000000027 3.196616455078125 0.18600000000000028 L 3.196616455078125 0.9465000000000003 C 3.196616455078125 0.9645000000000002 3.192116455078125 0.9675000000000002 3.175616455078125 0.9675000000000002 M 3.255116455078125 1.1325000000000003 C 3.336116455078125 1.1325000000000003 3.397616455078125 1.0920000000000003 3.397616455078125 1.0155000000000003 L 3.397616455078125 0.1425000000000003 C 3.397616455078125 0.051000000000000156 3.345116455078125 2.220446049250313e-16 3.234116455078125 2.220446049250313e-16 L 2.800616455078125 2.220446049250313e-16 C 2.779616455078125 2.220446049250313e-16 2.767616455078125 0.012000000000000233 2.767616455078125 0.0255000000000003 C 2.767616455078125 0.05700000000000016 2.832116455078125 0.09150000000000036 2.832116455078125 0.1515000000000003 L 2.832116455078125 0.9810000000000003 C 2.832116455078125 1.0410000000000004 2.767616455078125 1.0755000000000003 2.767616455078125 1.1070000000000002 C 2.767616455078125 1.1205000000000003 2.779616455078125 1.1325000000000003 2.800616455078125 1.1325000000000003 M 3.756087158203125 0.9675000000000002 L 3.756087158203125 0.16500000000000026 L 3.8985871582031253 0.16500000000000026 C 3.9105871582031253 0.16500000000000026 3.919587158203125 0.17400000000000027 3.919587158203125 0.18600000000000028 L 3.919587158203125 0.9465000000000003 C 3.919587158203125 0.9645000000000002 3.915087158203125 0.9675000000000002 3.8985871582031253 0.9675000000000002 M 3.978087158203125 1.1325000000000003 C 4.059087158203125 1.1325000000000003 4.120587158203125 1.0920000000000003 4.120587158203125 1.0155000000000003 L 4.120587158203125 0.1425000000000003 C 4.120587158203125 0.051000000000000156 4.0680871582031255 2.220446049250313e-16 3.9570871582031253 2.220446049250313e-16 L 3.5235871582031253 2.220446049250313e-16 C 3.502587158203125 2.220446049250313e-16 3.490587158203125 0.012000000000000233 3.490587158203125 0.0255000000000003 C 3.490587158203125 0.05700000000000016 3.555087158203125 0.09150000000000036 3.555087158203125 0.1515000000000003 L 3.555087158203125 0.9810000000000003 C 3.555087158203125 1.0410000000000004 3.490587158203125 1.0755000000000003 3.490587158203125 1.1070000000000002 C 3.490587158203125 1.1205000000000003 3.502587158203125 1.1325000000000003 3.5235871582031253 1.1325000000000003 M 4.453549072265625 0.1365000000000003 C 4.453549072265625 0.09450000000000025 4.501549072265624 0.05700000000000016 4.501549072265624 0.0255000000000003 C 4.501549072265624 0.012000000000000233 4.489549072265625 2.220446049250313e-16 4.468549072265625 2.220446049250313e-16 L 4.185049072265625 2.220446049250313e-16 C 4.164049072265625 2.220446049250313e-16 4.1520490722656245 0.012000000000000233 4.1520490722656245 0.0255000000000003 C 4.1520490722656245 0.05700000000000016 4.206049072265625 0.0990000000000002 4.233049072265625 0.1545000000000003 C 4.3170490722656245 0.3270000000000003 4.447549072265625 0.6045000000000003 4.4580490722656245 0.6375000000000003 L 4.4580490722656245 0.9810000000000003 C 4.4580490722656245 1.0410000000000004 4.393549072265625 1.0755000000000003 4.393549072265625 1.1070000000000002 C 4.393549072265625 1.1205000000000003 4.405549072265625 1.1325000000000003 4.426549072265625 1.1325000000000003 L 4.6905490722656245 1.1325000000000003 C 4.711549072265624 1.1325000000000003 4.723549072265625 1.1205000000000003 4.723549072265625 1.1070000000000002 C 4.723549072265625 1.0755000000000003 4.659049072265625 1.0410000000000004 4.659049072265625 0.9810000000000003 L 4.659049072265625 0.6375000000000003 C 4.6695490722656245 0.6045000000000003 4.800049072265625 0.3270000000000003 4.884049072265625 0.1545000000000003 C 4.911049072265625 0.0990000000000002 4.965049072265625 0.05700000000000016 4.965049072265625 0.0255000000000003 C 4.965049072265625 0.012000000000000233 4.953049072265625 2.220446049250313e-16 4.932049072265625 2.220446049250313e-16 L 4.648549072265625 2.220446049250313e-16 C 4.627549072265625 2.220446049250313e-16 4.615549072265625 0.012000000000000233 4.615549072265625 0.0255000000000003 C 4.615549072265625 0.05700000000000016 4.663549072265624 0.09450000000000025 4.663549072265624 0.1365000000000003 L 4.558549072265625 0.3825000000000003" fill="#ffffff" fill-rule="nonzero"></path></g><g><path d=" M 0.040625 1.8806249999999998 L 0.040625 1.8706249999999998 L 0.090625 1.8456249999999998 L 0.090625 1.5031249999999998 L 0.040625 1.4781249999999997 L 0.040625 1.4681249999999997 L 0.196875 1.4681249999999997 L 0.196875 1.4781249999999997 L 0.146875 1.5031249999999998 L 0.146875 1.6506249999999998 L 0.359375 1.6506249999999998 L 0.359375 1.5031249999999998 L 0.309375 1.4781249999999997 L 0.309375 1.4681249999999997 L 0.465625 1.4681249999999997 L 0.465625 1.4781249999999997 L 0.415625 1.5031249999999998 L 0.415625 1.8456249999999998 L 0.465625 1.8706249999999998 L 0.465625 1.8806249999999998 L 0.309375 1.8806249999999998 L 0.309375 1.8706249999999998 L 0.359375 1.8456249999999998 L 0.359375 1.6849999999999998 L 0.146875 1.6849999999999998 L 0.146875 1.8456249999999998 L 0.196875 1.8706249999999998 L 0.196875 1.8806249999999998 L 0.040625 1.8806249999999998 M 0.5506234741210937 1.8806249999999998 L 0.5506234741210937 1.8706249999999998 L 0.6006234741210937 1.8456249999999998 L 0.6006234741210937 1.5031249999999998 L 0.5506234741210937 1.4781249999999997 L 0.5506234741210937 1.4681249999999997 L 0.7068734741210938 1.4681249999999997 L 0.7068734741210938 1.4781249999999997 L 0.6568734741210938 1.5031249999999998 L 0.6568734741210938 1.8456249999999998 L 0.7068734741210938 1.8706249999999998 L 0.7068734741210938 1.8806249999999998 L 0.5506234741210937 1.8806249999999998 M 0.7918826293945312 1.8806249999999998 L 0.7918826293945312 1.8706249999999998 L 0.8418826293945312 1.8456249999999998 L 0.8418826293945312 1.5031249999999998 L 0.7918826293945312 1.4781249999999997 L 0.7918826293945312 1.4681249999999997 L 0.9500076293945312 1.4681249999999997 Q 0.9912576293945312 1.4681249999999997 1.0240701293945311 1.4784374999999996 Q 1.0568826293945313 1.4887499999999998 1.0756326293945313 1.5090624999999998 Q 1.0943826293945311 1.5293749999999997 1.0943826293945311 1.5606249999999997 Q 1.0943826293945311 1.5924999999999998 1.0731326293945314 1.6190624999999996 Q 1.0518826293945311 1.6456249999999997 1.011882629394531 1.6568749999999999 Q 1.0675076293945311 1.6643749999999997 1.0987576293945311 1.6915624999999999 Q 1.1300076293945311 1.7187499999999998 1.1300076293945311 1.7606249999999997 Q 1.1300076293945311 1.7949999999999997 1.1084451293945312 1.8221874999999998 Q 1.0868826293945313 1.8493749999999998 1.0493826293945312 1.8649999999999998 Q 1.011882629394531 1.8806249999999998 0.9643826293945312 1.8806249999999998 L 0.7918826293945312 1.8806249999999998 M 0.9356326293945312 1.5024999999999997 L 0.8981326293945312 1.5024999999999997 L 0.8981326293945312 1.6506249999999998 L 0.9393826293945312 1.6506249999999998 Q 0.9837576293945313 1.6506249999999998 1.0087576293945313 1.6315624999999998 Q 1.0337576293945312 1.6124999999999998 1.0337576293945312 1.5781249999999998 Q 1.0337576293945312 1.5024999999999997 0.9356326293945312 1.5024999999999997 M 0.9593826293945312 1.6849999999999998 L 0.8981326293945312 1.6849999999999998 L 0.8981326293945312 1.8462499999999997 L 0.9637576293945312 1.8462499999999997 Q 1.0131326293945313 1.8462499999999997 1.0412576293945313 1.8237499999999998 Q 1.0693826293945312 1.8012499999999998 1.0693826293945312 1.7656249999999998 Q 1.0693826293945312 1.7231249999999998 1.0409451293945313 1.7040624999999998 Q 1.0125076293945312 1.6849999999999998 0.9593826293945312 1.6849999999999998 M 1.2868768310546876 1.8806249999999998 L 1.2868768310546876 1.8706249999999998 L 1.3431268310546876 1.8456249999999998 L 1.3431268310546876 1.6881249999999999 L 1.2043768310546876 1.4987499999999998 L 1.1662518310546877 1.4781249999999997 L 1.1662518310546877 1.4681249999999997 L 1.3175018310546875 1.4681249999999997 L 1.3175018310546875 1.4781249999999997 L 1.2718768310546875 1.4999999999999998 L 1.2718768310546875 1.5024999999999997 L 1.3837518310546875 1.6543749999999997 L 1.4843768310546877 1.5031249999999998 L 1.4843768310546877 1.5006249999999999 L 1.4387518310546876 1.4781249999999997 L 1.4387518310546876 1.4681249999999997 L 1.5712518310546875 1.4681249999999997 L 1.5712518310546875 1.4781249999999997 L 1.5312518310546877 1.4987499999999998 L 1.3993768310546875 1.6874999999999998 L 1.3993768310546875 1.8456249999999998 L 1.4556268310546876 1.8706249999999998 L 1.4556268310546876 1.8806249999999998 L 1.2868768310546876 1.8806249999999998" fill="#ffffff" fill-rule="nonzero"></path></g><g clip-path="url(#SvgjsClipPath1002)"><path d=" M 0 -3.336554983144506 L 3.5214388992521855 -3.336554983144506 L 3.5214388992521855 -0.6848839161076796 L 0 -0.6848839161076796 Z" fill="#ffffff" transform="matrix(1,0,0,1,0,0)" fill-rule="nonzero" mask="url(#maskedMgText-456ca067-c497-4e26-acfe-a955c86a24fd)"></path></g></g><defs><clipPath id="SvgjsClipPath1002"><path d=" M 0 -3.7714388992521855 h 3.5214388992521855 v 3.5214388992521855 h -3.5214388992521855 Z"></path></clipPath><mask id="maskedMgText-456ca067-c497-4e26-acfe-a955c86a24fd"><path d=" M 3.4648079323458507 -1.7440731758763492 C 3.4586271271890956 -1.7266577448221312 3.4525695859528462 -1.7092247046364122 3.4476742473956437 -1.6955776277233496 C 3.4204681392270224 -1.6839556009328707 3.3918004731438405 -1.6983246522374629 3.3741032959856105 -1.6736366498734452 L 3.309301692062939 -1.6745171064484814 C 3.3061320483928083 -1.715018108900151 3.302962404722677 -1.7556952026668282 3.2999336341045526 -1.7956327129104748 C 3.302099557279141 -1.7983973465560885 3.3036843791142068 -1.8018839545932328 3.3057094292367903 -1.8023241828807506 C 3.3189514961253366 -1.804930334342858 3.3326337913014004 -1.8056699178658886 3.345594112085935 -1.809367835481041 C 3.355207638901535 -1.8132085943988303 3.3643767920165017 -1.8180795224863042 3.3729410933065624 -1.82389536896914 C 3.3918004731438396 -1.8374015728301971 3.404919276111881 -1.8529328268138372 3.3972769130405656 -1.8792232601444212 C 3.3954902781905862 -1.8845533476058636 3.3955585423196353 -1.8903309752553663 3.397470613487073 -1.8956173615715972 C 3.3993716546761785 -1.9008876285832583 3.4030111630826934 -1.9053531687612177 3.407789564546499 -1.9082783271206192 C 3.4234793007136464 -1.9151106701429008 3.4239195290011644 -1.9280357726644335 3.4211901136185516 -1.9422639509170203 C 3.4223347071660988 -1.9588165345277027 3.4233384276616405 -1.9755276003218918 3.4245006303406877 -1.9920801839325741 C 3.423620173765651 -2.004565058166589 3.422915808505622 -2.0170675415321044 3.422193834114093 -2.029552415766119 C 3.422193834114093 -2.0454006341167723 3.426648944383776 -2.0644184961375567 3.419746164835492 -2.0763222690320475 C 3.409984480170866 -2.0892955353096876 3.3958746379859277 -2.098316581952517 3.3800023550383527 -2.101732245787595 C 3.3562375864274414 -2.106353944631132 3.3321768071541187 -2.1092960795386055 3.307998616331886 -2.1105368115379575 C 3.2993191698940474 -2.1165104681868705 3.2902803425984795 -2.1219443500483566 3.2809333812152683 -2.126807649044629 C 3.2442183420362545 -2.1436595878908236 3.2437781137487365 -2.143941333994835 3.2465251382628493 -2.1974026572310397 L 3.270720084944849 -2.1725913909465167 C 3.287240072000045 -2.1924932782740894 3.2946106916805116 -2.2184342797167034 3.291023413565186 -2.2440492465764628 C 3.2985072944529943 -2.2731043135526607 3.276619143997592 -2.295115727928568 3.2724457798319198 -2.3259669263178404 L 3.308157098515392 -2.394237529146155 C 3.326153630909133 -2.394959503537685 3.3461576042939583 -2.389870464533975 3.358114204582951 -2.4102090114173134 C 3.376691838316217 -2.4351963690168437 3.3755296356371693 -2.4645331820970533 3.375969863924688 -2.4934297668897445 C 3.3935789954254134 -2.5066542246467898 3.3886308294737093 -2.5268871167411238 3.391659600091834 -2.5447075578198586 C 3.4002032240205216 -2.549358879212668 3.407282481656493 -2.5562978931573146 3.412103801764177 -2.5647467494676848 C 3.41693040483385 -2.5732251876666314 3.41932500655619 -2.582870619031679 3.4190241904439627 -2.592622004633334 C 3.4149916993302964 -2.6308338199899097 3.4334284600115565 -2.657987100764029 3.4515658654573045 -2.686742812504715 C 3.4609323382411343 -2.7013980650244998 3.4576232823281186 -2.720772053676509 3.4439235023859895 -2.731487615648059 L 3.426648944383777 -2.7605250734927567 C 3.4285331214543544 -2.767058061279526 3.4336925969840677 -2.7750526069808554 3.431685155992985 -2.779895118143555 C 3.4280157004899103 -2.7883204966077137 3.4224683299315015 -2.7957952923329974 3.415467145880816 -2.801748050335956 C 3.408499479273849 -2.8076882497396336 3.4002563138338484 -2.811942397985715 3.391377853987823 -2.8141800971754685 C 3.3812878216379074 -2.8224563889808096 3.3716556267070104 -2.8315955282296867 3.361002102149071 -2.838832881276485 C 3.3443404137235944 -2.847770053417886 3.3314562721802035 -2.8624108391988763 3.3247096821260738 -2.880073467251185 C 3.3268756053006636 -2.8816758982177513 3.330608741178818 -2.882978973948805 3.331048969466336 -2.8850216332028893 C 3.344431909406888 -2.953573982135216 3.344431909406888 -2.953573982135216 3.3225437589514852 -3.0092012285460092 C 3.3175075473422777 -3.0218269758320297 3.3131933101246 -3.0346112053015566 3.308157098515392 -3.047254561719078 C 3.332809882616409 -3.07180169103109 3.3283019449522224 -3.100258047536263 3.3192332422293487 -3.129313114512461 C 3.316785572950747 -3.1370083049782784 3.3097419203504574 -3.1454254698356254 3.3114676152375284 -3.1516767115183835 C 3.319814343568872 -3.1816122350696174 3.3303269950748056 -3.211089921201833 3.3402585452412157 -3.2432441953221587 L 3.273009272039943 -3.277529174354072 C 3.231248991742432 -3.2958634863128973 3.1874597408604384 -3.3091752294265917 3.1425608258825646 -3.3171849384937073 C 3.1238081642709568 -3.3332179708279006 3.098221221300106 -3.338683850670198 3.0745543600267604 -3.331712471981806 L 2.9917914419733487 -3.331712471981806 C 2.961979182342619 -3.3325753194253416 2.930018608668802 -3.341291839518201 2.9030942466041916 -3.33301554771286 C 2.8554263276317267 -3.318488014224761 2.8067546881637195 -3.321111774818369 2.759104378322755 -3.3135574574045576 C 2.7271690025362423 -3.3161271988379375 2.6950285285157562 -3.313823392460707 2.663786149509325 -3.306725114382276 C 2.6308042462084655 -3.3003329996475124 2.5952514097084993 -3.306725114382276 2.560966430676586 -3.3007732279350304 C 2.556793066510914 -3.303819607684656 2.5523379562412303 -3.3097714941319016 2.548305465127564 -3.3095777936853934 C 2.5135919731281993 -3.3109328440102774 2.4804491569635445 -3.2950567167204277 2.459749142810413 -3.2671573959001448 C 2.454662797272617 -3.2680311179552377 2.449493918401762 -3.2683264824621436 2.4443411527472776 -3.2680378524751807 C 2.432824780745803 -3.28256538596328 2.4215901548483396 -3.270644003937288 2.410214655898871 -3.2680378524751807 C 2.36701945632759 -3.2680378524751807 2.3238242567563088 -3.267016522848139 2.279625336689487 -3.266153675404603 C 2.2577923429965168 -3.268612521570204 2.235845083305237 -3.2626343500871315 2.218275122540958 -3.2494426096104143 C 2.2097002440683795 -3.2424683309882534 2.197875431169132 -3.241056208404343 2.1878993707022056 -3.2458151285212646 C 2.1591084406985184 -3.256697571788713 2.137220290243116 -3.2410254447530673 2.111581394778059 -3.23042474758963 C 2.085942499313002 -3.219824050426193 2.0531190781956488 -3.240585216465549 2.0282197662536223 -3.215897214101531 L 1.9782450510545617 -3.201369680613432 C 1.9480101722678151 -3.213273453507923 1.9179161665330744 -3.2230113032278247 1.8901993935509316 -3.1951184389306744 L 1.8901993935509316 -3.163985494437391 C 1.8901993935509316 -3.1623830634708248 1.8858851563332537 -3.160939114687765 1.8835783601066585 -3.159477556773205 C 1.8269826114633254 -3.2039230046810374 1.8269826114633254 -3.2039230046810374 1.7790329463868484 -3.1833027116936874 C 1.7434129250694819 -3.1847201369825777 1.7078241919030444 -3.1798012720366384 1.6739240404590152 -3.168775178205588 C 1.637373708791726 -3.1601479390860563 1.6003233754323642 -3.1537964533673084 1.562986512004442 -3.1497573161848043 L 1.426040296323295 -3.126231516499834 C 1.385609588525726 -3.1217929673107214 1.345431925440737 -3.1152926022767837 1.305664273384328 -3.1067558170600305 C 1.28505085558595 -3.1001529011845728 1.2635290143945799 -3.0968253939876744 1.2418839990887025 -3.0968947034196246 C 1.176818258193519 -3.1001876110102606 1.1195181442901565 -3.075939836933761 1.0635915426438507 -3.046743896905557 C 1.0297644010309561 -3.046743896905557 0.995056802843025 -3.0293108567198384 0.9627968739336952 -3.052026636355775 C 0.9348687913735437 -3.0462156229605353 0.9037710651432616 -3.053047965982817 0.8797169915132698 -3.031265470316419 C 0.8750413503837267 -3.031051739193621 0.870426505021109 -3.030119267222024 0.8660346963372055 -3.0285008366708053 L 0.8322603821188133 -3.0285008366708053 C 0.8186381920013625 -3.0303145347201217 0.8048356867080714 -3.0303145347201217 0.7912134965906207 -3.028500836670805 C 0.7506068393499467 -3.0180410125593737 0.7110215117363146 -3.023992899006619 0.6702739814436345 -3.0267399235207324 C 0.6348722816381027 -3.029755677434689 0.5999117819431501 -3.0366710060061064 0.5660279229593363 -3.0473602165080824 C 0.5505013362795845 -3.05268030351016 0.5346794061785465 -3.0570958625981866 0.5186417500908839 -3.0605846742651277 C 0.5119369179139309 -3.062313470113401 0.5048531352905051 -3.0618317481913198 0.4984440762595503 -3.0592111620080713 C 0.49200538462931953 -3.056588185313785 0.48657090608695763 -3.051980290340863 0.4829304314074106 -3.0460571407770285 C 0.46854377097131744 -3.0402461273817893 0.46665959390073974 -3.02668709612623 0.4642119246221389 -3.0138148209991993 C 0.451446984164218 -3.0110817565826618 0.43920091906913783 -3.006326003147679 0.42793711373064325 -2.9997275157986185 C 0.3984128712613067 -2.9749220929585802 0.38173024428107355 -2.9380661806354023 0.3825759909847731 -2.899513948427987 C 0.3843490564598762 -2.8699322275522734 0.3801572180170517 -2.840295929761503 0.3702495989342649 -2.812366356630894 C 0.3665609466698355 -2.7965216260406653 0.3650619534817219 -2.780245996444822 0.3657944886645812 -2.7639940723983996 C 0.32723642959436117 -2.743683946651468 0.28408456889617095 -2.7336814981989352 0.24052312716841628 -2.7349566145537025 C 0.22993956383455771 -2.735556689662057 0.21932408238232115 -2.734673547989035 0.20898517265061622 -2.732332853960094 C 0.17767613684232542 -2.723757206919241 0.14657841061204324 -2.7137023928323263 0.11058534582455926 -2.7026262491183695 C 0.10079466871015563 -2.69318775463398 0.08927829670868082 -2.6735887912736724 0.07286658615000419 -2.6679186509304382 C 0.03440824295241851 -2.654887893619901 0.02130704911587844 -2.6220644725025477 0 -2.5933087607618623 C 0.0067619064962787245 -2.5755763653406314 0.012678574680522692 -2.5604853396445093 0.01843676068126021 -2.5452358317648804 L 0.01843676068126021 -2.528295847261182 C 0.015795959116170155 -2.5148062268281164 0.02221144632016181 -2.5011626240409606 0.03428497903191341 -2.494591969568792 C 0.03615194070282235 -2.4894243037791486 0.0387173264296542 -2.484536444137956 0.04190973297172784 -2.4800644360806934 C 0.08527995171110392 -2.437343842906403 0.11369099369469393 -2.381757021634162 0.12291173787506748 -2.321582252574159 C 0.12291173787506748 -2.3170743149099735 0.1295327713193405 -2.313305960768818 0.13298416109348277 -2.309255860523651 L 0.13414636377253075 -2.2768550585623153 C 0.1286699238758049 -2.260020728847621 0.12305261092707331 -2.2431687900014263 0.11757617103034745 -2.2263168511552314 C 0.10678177342040251 -2.192630582594343 0.09396232568787388 -2.1595078062414768 0.08575647040853562 -2.1246417258700396 C 0.07789183420706658 -2.1006199851087497 0.08251428931387039 -2.074258783985378 0.09808286245904385 -2.054346072919141 C 0.11191329970675856 -2.036989877178342 0.11953789266802295 -2.0155046420533482 0.11974209420493687 -1.993312823137625 C 0.11974209420493687 -1.9864804801153433 0.1285466599552998 -1.980387720616092 0.13314264327698944 -1.9739427784868266 C 0.13270164803890727 -1.9686692424433752 0.13270164803890727 -1.9633680961796238 0.13314264327698944 -1.958094560136173 C 0.1277658178748059 -1.9543830035586311 0.12365949932601217 -1.9491087201531445 0.1213797434345043 -1.94298592530855 C 0.11908998466794218 -1.9368490819853308 0.11872148595786058 -1.9301608303973499 0.1203231955444608 -1.9238095811042593 L 0.10678177342040251 -1.8947721232595622 C 0.12720676153353971 -1.8561013890583167 0.15343113133892827 -1.820785191768315 0.18454369812760807 -1.790050618224745 C 0.20440679846042742 -1.7522790311556875 0.23638498126574592 -1.7209171679528943 0.2372478287092814 -1.673830350319953 C 0.2372478287092814 -1.6613454760859383 0.256107208546559 -1.6492832210079407 0.26603875871296856 -1.6370977020094384 C 0.27093409727017037 -1.6305471050911684 0.2745263600963185 -1.621249483658785 0.28044302828056233 -1.6179213578051481 C 0.304423894096728 -1.6040514857727666 0.3232296081317019 -1.5827420524136098 0.33401000630577093 -1.5572226815221457 L 0.3083711108407138 -1.5393494130489085 L 0.2838944180547046 -1.5213352715236659 C 0.2740966025591596 -1.507688873367544 0.2570867154864729 -1.5012260870847292 0.2406992184834238 -1.5049235609649891 C 0.21885737818151763 -1.50547979481601 0.19754420331830902 -1.4981608130667965 0.18065208006594813 -1.484303267977639 C 0.1615403728897722 -1.4694721038029797 0.1435858451113543 -1.453207067654859 0.12694422898873337 -1.4356492376411327 C 0.12158550189503381 -1.426474288735878 0.1180013003576289 -1.4163728140696248 0.11637875008829812 -1.405872196273405 C 0.09866396379856779 -1.4042697653068392 0.0785015082302365 -1.4087777029710251 0.06800646585580394 -1.3877171816961562 C 0.05892015400142925 -1.3641913820111864 0.062389152907072254 -1.3488010010795521 0.0833968467874383 -1.3208024819933974 C 0.08931351497168216 -1.3045316444867265 0.09521257402442551 -1.288260806980056 0.10125250612917447 -1.2718490964213796 C 0.11565677569676835 -1.2455586630907955 0.15231898748128003 -1.2541343101316489 0.16792067799092314 -1.2282841050885833 C 0.18352236850056647 -1.202433900045517 0.21722624619295594 -1.208244913440757 0.24716176974419024 -1.193576506900652 C 0.24413299912606534 -1.1499939064363554 0.27767839463494837 -1.1366285756273045 0.3125268658748852 -1.1244430566288017 C 0.3269311354424791 -1.1193540176250918 0.34131779587857225 -1.1357657281837685 0.3389405631259741 -1.154642717152547 C 0.3376368196230932 -1.1600138280140393 0.33575332852864526 -1.1652273785983573 0.3333232501772425 -1.170191580267688 C 0.361010384182721 -1.199826554386832 0.3789496393977283 -1.2372353404415595 0.3847243050278617 -1.2773783637126068 C 0.3860097716274148 -1.2866759851449905 0.39479672824627704 -1.2950931500023377 0.39999142203899124 -1.3039505431472027 C 0.4058904810917345 -1.2988615041434928 0.4112084388049538 -1.2894230096591035 0.41760055353971726 -1.2894230096591035 C 0.4587883121199154 -1.2836119962638644 0.4690192175218373 -1.2568989437772629 0.46627219300772393 -1.2202895593872534 L 0.3850588785263756 -1.1621794254348576 C 0.40249191871209433 -1.1464896892677106 0.4158748586526462 -1.134445043321214 0.42825407809765653 -1.1228230165307351 C 0.4420200768809484 -1.1329841332432593 0.4564572626017003 -1.142202988183935 0.47146688680043836 -1.1504165255923726 C 0.48907601830116415 -1.158411071293702 0.5060160028048626 -1.131539536623594 0.5264602044772055 -1.1479512471822708 C 0.5282211176272782 -1.15448423496904 0.5303518225388659 -1.162461171538869 0.5323592635299488 -1.1700154889526806 C 0.5443405369622603 -1.17531567940497 0.5568395392496515 -1.179358085716048 0.5696554040484866 -1.1820777440306776 C 0.5817528773894851 -1.1833808197617317 0.5947131981740196 -1.167550210542579 0.6065113162795059 -1.1796124656205762 C 0.6209155858470998 -1.1941399991086754 0.6104029343411663 -1.2086499234652737 0.6065113162795059 -1.2244805326844261 C 0.6054548779898101 -1.2319979155282823 0.6054548779898101 -1.2396261020820045 0.6065113162795059 -1.2471434849258607 L 0.6312873643010274 -1.2533947266086185 C 0.6393523465283599 -1.225801217546981 0.6393523465283599 -1.225801217546981 0.6569086506345838 -1.237546508257965 L 0.6819664447601169 -1.2539582188166416 C 0.6817458948029083 -1.2459531026447868 0.6803394769582767 -1.238024941292771 0.677793080594445 -1.230432419131672 C 0.6676799883473139 -1.2142907814612416 0.6673477240825461 -1.1938734814364313 0.6769302331509093 -1.1774113241829858 C 0.6796195848291351 -1.1698602377606444 0.6809838208804424 -1.16190120123424 0.6809627242645755 -1.1538855244980162 C 0.6743134082695099 -1.1542378688974273 0.6676646527340061 -1.153181748884568 0.6614518065617712 -1.1507863173538881 C 0.6552283934177473 -1.1483798074909939 0.6495778708121723 -1.1446967704635809 0.6448640046880872 -1.1399743106124423 C 0.6352674725321041 -1.1303784314982983 0.6301540715869107 -1.1171858570596995 0.6307766994875065 -1.1036290631949437 C 0.608184183772075 -1.094912543102084 0.5851338306376247 -1.0869179974007546 0.5628230610262048 -1.0770568837603482 C 0.5405122914147849 -1.0671957701199417 0.5099956665240268 -1.0703654137900724 0.4964366352684677 -1.041838620758896 C 0.5093969560530021 -1.0355873790761385 0.5252451744036555 -1.032540999326513 0.5327290552914641 -1.0231025048421238 C 0.5429132623336761 -1.0081789342641618 0.5513671431457643 -0.9921455083214594 0.5579277224690031 -0.9753113219491536 C 0.5719268674820068 -0.9775401687082979 0.5861904930577415 -0.9775401687082979 0.6001896380707454 -0.9753113219491536 C 0.6211652366927849 -0.9669097297963374 0.6451611557284739 -0.9727442812860061 0.6599374212527087 -0.9898388554372524 C 0.6727568689852372 -1.0016017552797374 0.68543544366576 -0.9907017028807881 0.698096409214782 -0.987373577027151 L 0.7618942926419122 -0.9709618664684745 C 0.7827611134702726 -0.9832882585189826 0.8033637973261221 -0.9960724879885094 0.8243714912064882 -1.007941042619999 C 0.8357812579647932 -1.0160880296752988 0.8506176538203906 -1.0176838436309639 0.863498981401101 -1.0121496250486723 C 0.9074161553639117 -0.9912299768258102 0.9355027201075699 -1.0121496250486726 0.9573908705629722 -1.0488998824906877 C 0.9586763371625252 -1.0510658056652769 0.9618459808326559 -1.0520871352923191 0.9641527770592511 -1.0535310840753784 C 0.9700601166174107 -1.050066726512994 0.9747620891230072 -1.0448730444643282 0.9776237626573064 -1.038651367957265 C 0.9805078049643505 -1.0324168020883022 0.9814348676582976 -1.0254546226516408 0.9802827415139161 -1.018682612835442 C 0.9789796657828624 -1.0032922319038078 0.9772539708957912 -0.9878842418406724 0.9758100221127317 -0.9733743174840739 C 1.0062033830829848 -0.956663251689885 1.034853440034666 -0.942294200385293 1.0640845983258713 -0.9480876046490312 C 1.1088646197322174 -0.9568921703993942 1.152130255829501 -0.9732158353005671 1.1962587393703203 -0.9862994200056066 C 1.19811892379979 -0.9707851212814314 1.1960917388463843 -0.9550517455236549 1.1903596803175776 -0.9405156781037189 C 1.184677068685581 -0.9259405952789797 1.1754179586648081 -0.9130299199589751 1.163435318252967 -0.902973009744171 C 1.133041957282714 -0.8783202256431548 1.0914315795464986 -0.8830746911483511 1.058167930141627 -0.8660818792501503 C 1.0555793878110205 -0.845743332366812 1.0531317185324194 -0.8273417899485533 1.0506840492538185 -0.8079717452977544 C 1.0594414173050608 -0.8006313777539469 1.069105809962042 -0.7944468766354253 1.0794397609945041 -0.7895702028794953 C 1.0895238116765125 -0.7852834532130224 1.1008674213506733 -0.7850250709926665 1.111136197695811 -0.7888482284879665 C 1.146548161143771 -0.8110709524418827 1.1793715822611242 -0.791894608237592 1.2130754599535138 -0.7856433665548344 C 1.2151096113154671 -0.7593648959127228 1.2281257903679836 -0.7351609401696835 1.2489276516889918 -0.7189751946930856 L 1.3108413580455447 -0.7189751946930856 C 1.3518706344422362 -0.7199965243201278 1.3916144442393747 -0.7181123472495501 1.428487965601895 -0.6953085219561101 C 1.453005965715727 -0.6827530093099243 1.4817332154541214 -0.681323059155535 1.5073768747251473 -0.6913816856314479 C 1.5252325340668837 -0.6966644250816656 1.544109523035662 -0.6987951299932535 1.5625286745854217 -0.7022817380303974 C 1.5703119107087424 -0.7048878894925048 1.5792397403796106 -0.7112800042272682 1.5858607738238837 -0.709325390630688 C 1.6136479833320294 -0.7014717179813643 1.6384240313535505 -0.7103467202577298 1.6653483934181608 -0.7158583784174577 C 1.7026269248051977 -0.7235535688832746 1.7384791165406759 -0.7422720756685464 1.778381408521321 -0.7352284230682558 C 1.7864463907486534 -0.7207184987116575 1.790707800571829 -0.70428917902148 1.807172338525008 -0.695872014164133 L 1.8726959168392092 -0.708515370581654 C 1.8738139410070296 -0.7240604430844373 1.8796087843282017 -0.7389035904897274 1.8893189369758951 -0.7510942505504099 C 1.8989787684588475 -0.7632370003148194 1.9121126047662822 -0.7721444197001235 1.9269672601244472 -0.7766274912264621 C 1.9566386467031707 -0.7866470870503752 1.977505467531531 -0.8226753701008609 2.015012917628077 -0.807425862221232 C 2.0358797384564378 -0.8219357865778303 2.039665701729094 -0.8528750306246056 2.069143387861309 -0.8584923435733374 C 2.0741296738096615 -0.8528545468905291 2.079899805590975 -0.8479620918858175 2.0862770728115154 -0.8439648100852386 C 2.115085611946703 -0.8294372765971398 2.133363890444457 -0.8367098479069393 2.14387654195039 -0.8659057879351435 C 2.146465084280997 -0.8737418514529662 2.145743109889467 -0.8842016755643973 2.150638448446669 -0.8892731054366068 C 2.1589779790797263 -0.8958407129646941 2.1681870147616196 -0.9012215394763792 2.178003038798797 -0.9052621968392653 C 2.197373083449596 -0.9106329819469872 2.217165747256412 -0.9152817926631787 2.235602507937672 -0.9218147804499481 C 2.24454998280854 -0.9258136388857983 2.2530842076847044 -0.9306793856189257 2.2610829212192227 -0.9363423139380471 C 2.289696674950436 -0.9337605448171158 2.3184192171833318 -0.9399386242454442 2.3434408292481175 -0.9540571002277767 C 2.393116189211666 -0.9511515935301578 2.4387590580615477 -0.9685846337158763 2.4847012821469416 -0.9831121672039755 C 2.493903364325895 -0.9856560252161974 2.502437749647795 -0.9901816534890076 2.509706248877972 -0.9963718432240218 C 2.516992137896715 -1.002587049609472 2.5228538931902564 -1.010298621122696 2.5268927612226815 -1.018981968070954 C 2.5320698458838944 -1.0198448155144895 2.5374582401231165 -1.0204259168540133 2.54286424349384 -1.0208661451415315 C 2.578082506495292 -1.0147733856422803 2.6093915423035825 -1.0327699180360221 2.6427960647604603 -1.0377180839877262 C 2.6875850181233516 -1.0341468587517297 2.732629771474624 -1.0398291509908524 2.775128687988415 -1.0544115406504146 L 2.8246631748999578 -1.0544115406504146 C 2.8611444249405436 -1.0505858723503767 2.896548692807915 -1.068195360884526 2.9155086843122033 -1.099596572081278 C 2.9268397798045327 -1.1131788939324845 2.939743708018536 -1.125367579217539 2.953949418378288 -1.135906601235775 L 2.9869313216791475 -1.0760355541333062 C 2.992443328778821 -1.0743816738664955 2.998169381735177 -1.0735509511578012 3.003924133577348 -1.0735702757232048 C 3.03963545226082 -1.0792404160664386 3.051468788629308 -1.1185968249705611 3.0829715248841074 -1.1290566490819924 C 3.1043927964532974 -1.1322678551376555 3.1256341552157045 -1.1365819551187304 3.1466109261277317 -1.1419817516035258 C 3.165188559860997 -1.1464896892677112 3.1835901022792554 -1.1514202460879144 3.2020444720920165 -1.156509285091624 C 3.2242349997525124 -1.1594144857482702 3.2437618818446508 -1.1725998611937134 3.2547486026736894 -1.1920973398545913 C 3.2502934924040057 -1.2157640125915672 3.244535306403268 -1.2396419949065518 3.241506535785143 -1.2647173981635857 C 3.237168405416024 -1.28155596404719 3.2443631484005513 -1.2992495963968118 3.259221322074873 -1.3082823894963815 C 3.2685717709017594 -1.3127903271605674 3.2826766852338403 -1.3148153772831508 3.2864274302434953 -1.322087948592951 C 3.2944294468526563 -1.340887397553731 3.3008382212342515 -1.3603257757331992 3.3055861653162846 -1.380198082545347 L 3.2479866961774104 -1.4281301384903229 L 3.275773905685556 -1.4571675963350201 C 3.2809509903467693 -1.4581889259620622 3.29017817525315 -1.4571675963350201 3.29090014964468 -1.4606894226351654 C 3.3028391408021722 -1.4927908693609888 3.313651147543618 -1.525174062190824 3.3248681643095805 -1.5577157372041657 C 3.3341238566884144 -1.5529115108445999 3.343759221889048 -1.5488771433858992 3.3536767034447688 -1.5456534821261685 C 3.3759874730561874 -1.5401418239664413 3.3882258194491923 -1.5509362215763862 3.3890886668927283 -1.5747085491023667 C 3.3905472774077605 -1.5880581737932196 3.385129173093869 -1.6012353748601755 3.374702006456635 -1.6096978933943087 C 3.374702006456635 -1.6500756319254737 3.374702006456635 -1.6500756319254737 3.4059406057389223 -1.6598134816453751 L 3.4682945403829937 -1.6550237978771776 C 3.475720690495603 -1.6736806489739646 3.482110796253967 -1.6927333930060329 3.487435666324282 -1.7120949930710312 C 3.4882034367787877 -1.7157115233599238 3.4882034367787877 -1.7194489517070894 3.487435666324282 -1.723065481995983 C 3.486675839054393 -1.7266758450460562 3.485183527327132 -1.7300919803253296 3.4830509925806017 -1.7331026869513968 C 3.4809046651088456 -1.7360911624424227 3.4781576534693572 -1.7385982604016064 3.4749860103532693 -1.7404633039187003 C 3.471885303720846 -1.7423697503973823 3.4684169365570687 -1.7435998806198292 3.4648079323458507 -1.7440731758763492 Z" fill="#ffffff" transform="matrix(1,0,0,1,0,0)" fill-rule="nonzero"></path><path d=" M 3.502966920307924 -1.602302058164004 C 3.4997455329527734 -1.602934236678936 3.496423060506459 -1.6028319141579446 3.493246679719524 -1.6020027029284916 C 3.486796170675366 -1.6002970594984334 3.481462749444962 -1.5957662404920219 3.4787367553629247 -1.5896763108779834 C 3.4773655433638395 -1.5866664885696373 3.4766913836654414 -1.5833859793229668 3.4767645326348435 -1.5800793342100876 C 3.4761248555008306 -1.5747040525436102 3.4777186743374897 -1.569301733428029 3.481173639240931 -1.5651344732554775 C 3.4846286041443726 -1.5609672130829255 3.489642079522644 -1.5584000405250076 3.4950428111325973 -1.5580327015711792 C 3.5015725223766188 -1.5567184459372903 3.508345371448863 -1.5584489250782367 3.513444353550856 -1.5627343396818725 C 3.518562102648608 -1.5670450992480227 3.5214768011345683 -1.5734238296374745 3.5213860718576835 -1.580114552473089 C 3.5217604646722744 -1.5854919071817766 3.520051755293564 -1.59080719133769 3.5166139972209867 -1.5949590503282012 C 3.513189184033603 -1.599083668146216 3.5082959883518914 -1.6017165231130208 3.5029669203079243 -1.602302058164004 Z" fill="#ffffff" transform="matrix(1,0,0,1,0,0)" fill-rule="nonzero"></path><path d=" M 3.4898481173398825 -1.8277341596362984 C 3.4921549135664782 -1.8277341596362984 3.49705025212368 -1.8357110962061274 3.4961874046801444 -1.8378946285122173 C 3.4947563111232833 -1.8430656317688805 3.4913804654764924 -1.8474826260730925 3.486766519327256 -1.8502210205627254 C 3.482190303529587 -1.852928992631112 3.476737897666206 -1.853744010425291 3.4715698388421297 -1.8524925985263192 C 3.469985017007064 -1.8504499392722351 3.4668153733369333 -1.8479846608621335 3.4672379924929504 -1.8463822298955674 C 3.4679884692368965 -1.8409954631169423 3.470734899799704 -1.8360870826374178 3.474933182958768 -1.8326294981935003 C 3.4790997719951964 -1.8291574558171266 3.484434412088504 -1.827406534983668 3.4898481173398825 -1.8277341596362988 Z" fill="#ffffff" transform="matrix(1,0,0,1,0,0)" fill-rule="nonzero"></path><path d=" M 1.0098277215039309 -1.2986454678262283 L 1.0098277215039309 -1.3331702669437975 L 1.1846095170366249 -1.4194822647377203 L 1.1846095170366249 -2.6019566345144653 L 1.0098277215039309 -2.688268632308388 L 1.0098277215039309 -2.7227934314259574 L 1.5816447068886705 -2.7227934314259574 L 1.5816447068886705 -2.688268632308388 L 1.4111785112456727 -2.6019566345144653 L 1.4111785112456727 -2.09271584753032 L 2.1124634933212967 -2.09271584753032 L 2.1124634933212967 -2.6019566345144653 L 1.939839497733451 -2.688268632308388 L 1.939839497733451 -2.7227934314259574 L 2.5116564831181907 -2.7227934314259574 L 2.5116564831181907 -2.688268632308388 L 2.336874687585497 -2.6019566345144653 L 2.336874687585497 -1.4194822647377203 L 2.5116564831181907 -1.3331702669437975 L 2.5116564831181907 -1.2986454678262283 L 1.939839497733451 -1.2986454678262283 L 1.939839497733451 -1.3331702669437975 L 2.1124634933212967 -1.4194822647377203 L 2.1124634933212967 -1.9740368505636756 L 1.4111785112456727 -1.9740368505636756 L 1.4111785112456727 -1.4194822647377203 L 1.5816447068886705 -1.3331702669437975 L 1.5816447068886705 -1.2986454678262283 L 1.0098277215039309 -1.2986454678262283" fill="NA" transform="matrix(1,0,0,1,0,0)" fill-rule="nonzero"></path></mask></defs></svg>