<?xml version="1.0" encoding="utf-8"?>
<svg version="1.1" viewBox="0.486 0.924 3.628 2.759" xmlns="http://www.w3.org/2000/svg">
  <g transform="matrix(1,0,0,1,0.5305436356280469,4.301982534880232)">
    <rect width="6.713151170508279" height="6.713151170508279" x="-0.8665422600588277" y="-4.301982534880232" style="fill: rgba(255, 255, 255, 0);"/>
    <g/>
    <g/>
    <g clip-path="url(#SvgjsClipPath1002)">
      <path d="M 0 -3.337 L 3.521 -3.337 L 3.521 -0.685 L 0 -0.685 L 0 -3.337 Z" fill-rule="nonzero" mask="url(#maskedMgText-456ca067-c497-4e26-acfe-a955c86a24fd)" style="paint-order: fill; fill-rule: evenodd; fill: rgb(58, 134, 143);"/>
    </g>
  </g>
  <defs>
    <clipPath id="SvgjsClipPath1002">
      <path d=" M 0 -3.7714388992521855 h 3.5214388992521855 v 3.5214388992521855 h -3.5214388992521855 Z"/>
    </clipPath>
    <mask id="maskedMgText-456ca067-c497-4e26-acfe-a955c86a24fd">
      <path d="M 3.465 -1.744 C 3.459 -1.727 3.453 -1.709 3.448 -1.696 C 3.42 -1.684 3.392 -1.698 3.374 -1.674 L 3.309 -1.675 C 3.306 -1.715 3.303 -1.756 3.3 -1.796 C 3.302 -1.798 3.304 -1.802 3.306 -1.802 C 3.319 -1.805 3.333 -1.806 3.346 -1.809 C 3.355 -1.813 3.364 -1.818 3.373 -1.824 C 3.392 -1.837 3.405 -1.853 3.397 -1.879 C 3.395 -1.885 3.396 -1.89 3.397 -1.896 C 3.399 -1.901 3.403 -1.905 3.408 -1.908 C 3.423 -1.915 3.424 -1.928 3.421 -1.942 C 3.422 -1.959 3.423 -1.976 3.425 -1.992 C 3.424 -2.005 3.423 -2.017 3.422 -2.03 C 3.422 -2.045 3.427 -2.064 3.42 -2.076 C 3.41 -2.089 3.396 -2.098 3.38 -2.102 C 3.356 -2.106 3.332 -2.109 3.308 -2.111 C 3.299 -2.117 3.29 -2.122 3.281 -2.127 C 3.244 -2.144 3.244 -2.144 3.247 -2.197 L 3.271 -2.173 C 3.287 -2.192 3.295 -2.218 3.291 -2.244 C 3.299 -2.273 3.277 -2.295 3.272 -2.326 L 3.308 -2.394 C 3.326 -2.395 3.346 -2.39 3.358 -2.41 C 3.377 -2.435 3.376 -2.465 3.376 -2.493 C 3.394 -2.507 3.389 -2.527 3.392 -2.545 C 3.4 -2.549 3.407 -2.556 3.412 -2.565 C 3.417 -2.573 3.419 -2.583 3.419 -2.593 C 3.415 -2.631 3.433 -2.658 3.452 -2.687 C 3.461 -2.701 3.458 -2.721 3.444 -2.731 L 3.427 -2.761 C 3.429 -2.767 3.434 -2.775 3.432 -2.78 C 3.428 -2.788 3.422 -2.796 3.415 -2.802 C 3.408 -2.808 3.4 -2.812 3.391 -2.814 C 3.381 -2.822 3.372 -2.832 3.361 -2.839 C 3.344 -2.848 3.331 -2.862 3.325 -2.88 C 3.327 -2.882 3.331 -2.883 3.331 -2.885 C 3.344 -2.954 3.344 -2.954 3.323 -3.009 C 3.318 -3.022 3.313 -3.035 3.308 -3.047 C 3.333 -3.072 3.328 -3.1 3.319 -3.129 C 3.317 -3.137 3.31 -3.145 3.311 -3.152 C 3.32 -3.182 3.33 -3.211 3.34 -3.243 L 3.273 -3.278 C 3.231 -3.296 3.187 -3.309 3.143 -3.317 C 3.124 -3.333 3.098 -3.339 3.075 -3.332 L 2.992 -3.332 C 2.962 -3.333 2.93 -3.341 2.903 -3.333 C 2.855 -3.318 2.807 -3.321 2.759 -3.314 C 2.727 -3.316 2.695 -3.314 2.664 -3.307 C 2.631 -3.3 2.595 -3.307 2.561 -3.301 C 2.557 -3.304 2.552 -3.31 2.548 -3.31 C 2.514 -3.311 2.48 -3.295 2.46 -3.267 C 2.455 -3.268 2.449 -3.268 2.444 -3.268 C 2.433 -3.283 2.422 -3.271 2.41 -3.268 C 2.367 -3.268 2.324 -3.267 2.28 -3.266 C 2.258 -3.269 2.236 -3.263 2.218 -3.249 C 2.21 -3.242 2.198 -3.241 2.188 -3.246 C 2.159 -3.257 2.137 -3.241 2.112 -3.23 C 2.086 -3.22 2.053 -3.241 2.028 -3.216 L 1.978 -3.201 C 1.948 -3.213 1.918 -3.223 1.89 -3.195 L 1.89 -3.164 C 1.89 -3.162 1.886 -3.161 1.884 -3.159 C 1.827 -3.204 1.827 -3.204 1.779 -3.183 C 1.743 -3.185 1.708 -3.18 1.674 -3.169 C 1.637 -3.16 1.6 -3.154 1.563 -3.15 L 1.426 -3.126 C 1.386 -3.122 1.345 -3.115 1.306 -3.107 C 1.285 -3.1 1.264 -3.097 1.242 -3.097 C 1.177 -3.1 1.12 -3.076 1.064 -3.047 C 1.03 -3.047 0.995 -3.029 0.963 -3.052 C 0.935 -3.046 0.904 -3.053 0.88 -3.031 C 0.875 -3.031 0.87 -3.03 0.866 -3.029 L 0.832 -3.029 C 0.819 -3.03 0.805 -3.03 0.791 -3.029 C 0.751 -3.018 0.711 -3.024 0.67 -3.027 C 0.635 -3.03 0.6 -3.037 0.566 -3.047 C 0.551 -3.053 0.535 -3.057 0.519 -3.061 C 0.512 -3.062 0.505 -3.062 0.498 -3.059 C 0.492 -3.057 0.487 -3.052 0.483 -3.046 C 0.469 -3.04 0.467 -3.027 0.464 -3.014 C 0.451 -3.011 0.439 -3.006 0.428 -3 C 0.398 -2.975 0.382 -2.938 0.383 -2.9 C 0.384 -2.87 0.38 -2.84 0.37 -2.812 C 0.367 -2.797 0.365 -2.78 0.366 -2.764 C 0.327 -2.744 0.284 -2.734 0.241 -2.735 C 0.23 -2.736 0.219 -2.735 0.209 -2.732 C 0.178 -2.724 0.147 -2.714 0.111 -2.703 C 0.101 -2.693 0.089 -2.674 0.073 -2.668 C 0.034 -2.655 0.021 -2.622 0 -2.593 C 0.007 -2.576 0.013 -2.56 0.018 -2.545 L 0.018 -2.528 C 0.016 -2.515 0.022 -2.501 0.034 -2.495 C 0.036 -2.489 0.039 -2.485 0.042 -2.48 C 0.085 -2.437 0.114 -2.382 0.123 -2.322 C 0.123 -2.317 0.13 -2.313 0.133 -2.309 L 0.134 -2.277 C 0.129 -2.26 0.123 -2.243 0.118 -2.226 C 0.107 -2.193 0.094 -2.16 0.086 -2.125 C 0.078 -2.101 0.083 -2.074 0.098 -2.054 C 0.112 -2.037 0.12 -2.016 0.12 -1.993 C 0.12 -1.986 0.129 -1.98 0.133 -1.974 C 0.133 -1.969 0.133 -1.963 0.133 -1.958 C 0.128 -1.954 0.124 -1.949 0.121 -1.943 C 0.119 -1.937 0.119 -1.93 0.12 -1.924 L 0.107 -1.895 C 0.127 -1.856 0.153 -1.821 0.185 -1.79 C 0.204 -1.752 0.236 -1.721 0.237 -1.674 C 0.237 -1.661 0.256 -1.649 0.266 -1.637 C 0.271 -1.631 0.275 -1.621 0.28 -1.618 C 0.304 -1.604 0.323 -1.583 0.334 -1.557 L 0.308 -1.539 L 0.284 -1.521 C 0.274 -1.508 0.257 -1.501 0.241 -1.505 C 0.219 -1.505 0.198 -1.498 0.181 -1.484 C 0.162 -1.469 0.144 -1.453 0.127 -1.436 C 0.122 -1.426 0.118 -1.416 0.116 -1.406 C 0.099 -1.404 0.079 -1.409 0.068 -1.388 C 0.059 -1.364 0.062 -1.349 0.083 -1.321 C 0.089 -1.305 0.095 -1.288 0.101 -1.272 C 0.116 -1.246 0.152 -1.254 0.168 -1.228 C 0.184 -1.202 0.217 -1.208 0.247 -1.194 C 0.244 -1.15 0.278 -1.137 0.313 -1.124 C 0.327 -1.119 0.341 -1.136 0.339 -1.155 C 0.338 -1.16 0.336 -1.165 0.333 -1.17 C 0.361 -1.2 0.379 -1.237 0.385 -1.277 C 0.386 -1.287 0.395 -1.295 0.4 -1.304 C 0.406 -1.299 0.411 -1.289 0.418 -1.289 C 0.459 -1.284 0.469 -1.257 0.466 -1.22 L 0.385 -1.162 C 0.402 -1.146 0.416 -1.134 0.428 -1.123 C 0.442 -1.133 0.456 -1.142 0.471 -1.15 C 0.489 -1.158 0.506 -1.132 0.526 -1.148 C 0.528 -1.154 0.53 -1.162 0.532 -1.17 C 0.544 -1.175 0.557 -1.179 0.57 -1.182 C 0.582 -1.183 0.595 -1.168 0.607 -1.18 C 0.621 -1.194 0.61 -1.209 0.607 -1.224 C 0.605 -1.232 0.605 -1.24 0.607 -1.247 L 0.631 -1.253 C 0.639 -1.226 0.639 -1.226 0.657 -1.238 L 0.682 -1.254 C 0.682 -1.246 0.68 -1.238 0.678 -1.23 C 0.668 -1.214 0.667 -1.194 0.677 -1.177 C 0.68 -1.17 0.681 -1.162 0.681 -1.154 C 0.674 -1.154 0.668 -1.153 0.661 -1.151 C 0.655 -1.148 0.65 -1.145 0.645 -1.14 C 0.635 -1.13 0.63 -1.117 0.631 -1.104 C 0.608 -1.095 0.585 -1.087 0.563 -1.077 C 0.541 -1.067 0.51 -1.07 0.496 -1.042 C 0.509 -1.036 0.525 -1.033 0.533 -1.023 C 0.543 -1.008 0.551 -0.992 0.558 -0.975 C 0.572 -0.978 0.586 -0.978 0.6 -0.975 C 0.621 -0.967 0.645 -0.973 0.66 -0.99 C 0.673 -1.002 0.685 -0.991 0.698 -0.987 L 0.762 -0.971 C 0.783 -0.983 0.803 -0.996 0.824 -1.008 C 0.836 -1.016 0.851 -1.018 0.863 -1.012 C 0.907 -0.991 0.936 -1.012 0.957 -1.049 C 0.959 -1.051 0.962 -1.052 0.964 -1.054 C 0.97 -1.05 0.975 -1.045 0.978 -1.039 C 0.981 -1.032 0.981 -1.025 0.98 -1.019 C 0.979 -1.003 0.977 -0.988 0.976 -0.973 C 1.006 -0.957 1.035 -0.942 1.064 -0.948 C 1.109 -0.957 1.152 -0.973 1.196 -0.986 C 1.198 -0.971 1.196 -0.955 1.19 -0.941 C 1.185 -0.926 1.175 -0.913 1.163 -0.903 C 1.133 -0.878 1.091 -0.883 1.058 -0.866 C 1.056 -0.846 1.053 -0.827 1.051 -0.808 C 1.059 -0.801 1.069 -0.794 1.079 -0.79 C 1.09 -0.785 1.101 -0.785 1.111 -0.789 C 1.147 -0.811 1.179 -0.792 1.213 -0.786 C 1.215 -0.759 1.228 -0.735 1.249 -0.719 L 1.311 -0.719 C 1.352 -0.72 1.392 -0.718 1.428 -0.695 C 1.453 -0.683 1.482 -0.681 1.507 -0.691 C 1.525 -0.697 1.544 -0.699 1.563 -0.702 C 1.57 -0.705 1.579 -0.711 1.586 -0.709 C 1.614 -0.701 1.638 -0.71 1.665 -0.716 C 1.703 -0.724 1.738 -0.742 1.778 -0.735 C 1.786 -0.721 1.791 -0.704 1.807 -0.696 L 1.873 -0.709 C 1.874 -0.724 1.88 -0.739 1.889 -0.751 C 1.899 -0.763 1.912 -0.772 1.927 -0.777 C 1.957 -0.787 1.978 -0.823 2.015 -0.807 C 2.036 -0.822 2.04 -0.853 2.069 -0.858 C 2.074 -0.853 2.08 -0.848 2.086 -0.844 C 2.115 -0.829 2.133 -0.837 2.144 -0.866 C 2.146 -0.874 2.146 -0.884 2.151 -0.889 C 2.159 -0.896 2.168 -0.901 2.178 -0.905 C 2.197 -0.911 2.217 -0.915 2.236 -0.922 C 2.245 -0.926 2.253 -0.931 2.261 -0.936 C 2.29 -0.934 2.318 -0.94 2.343 -0.954 C 2.393 -0.951 2.439 -0.969 2.485 -0.983 C 2.494 -0.986 2.502 -0.99 2.51 -0.996 C 2.517 -1.003 2.523 -1.01 2.527 -1.019 C 2.532 -1.02 2.537 -1.02 2.543 -1.021 C 2.578 -1.015 2.609 -1.033 2.643 -1.038 C 2.688 -1.034 2.733 -1.04 2.775 -1.054 L 2.825 -1.054 C 2.861 -1.051 2.897 -1.068 2.916 -1.1 C 2.927 -1.113 2.94 -1.125 2.954 -1.136 L 2.987 -1.076 C 2.992 -1.074 2.998 -1.074 3.004 -1.074 C 3.04 -1.079 3.051 -1.119 3.083 -1.129 C 3.104 -1.132 3.126 -1.137 3.147 -1.142 C 3.165 -1.146 3.184 -1.151 3.202 -1.157 C 3.224 -1.159 3.244 -1.173 3.255 -1.192 C 3.25 -1.216 3.245 -1.24 3.242 -1.265 C 3.237 -1.282 3.244 -1.299 3.259 -1.308 C 3.269 -1.313 3.283 -1.315 3.286 -1.322 C 3.294 -1.341 3.301 -1.36 3.306 -1.38 L 3.248 -1.428 L 3.276 -1.457 C 3.281 -1.458 3.29 -1.457 3.291 -1.461 C 3.303 -1.493 3.314 -1.525 3.325 -1.558 C 3.334 -1.553 3.344 -1.549 3.354 -1.546 C 3.376 -1.54 3.388 -1.551 3.389 -1.575 C 3.391 -1.588 3.385 -1.601 3.375 -1.61 C 3.375 -1.65 3.375 -1.65 3.406 -1.66 L 3.468 -1.655 C 3.476 -1.674 3.482 -1.693 3.487 -1.712 C 3.488 -1.716 3.488 -1.719 3.487 -1.723 C 3.487 -1.727 3.485 -1.73 3.483 -1.733 C 3.481 -1.736 3.478 -1.739 3.475 -1.74 C 3.472 -1.742 3.468 -1.744 3.465 -1.744 Z" fill="#ffffff" fill-rule="nonzero"/>
      <path d="M 3.503 -1.602 C 3.5 -1.603 3.496 -1.603 3.493 -1.602 C 3.487 -1.6 3.481 -1.596 3.479 -1.59 C 3.477 -1.587 3.477 -1.583 3.477 -1.58 C 3.476 -1.575 3.478 -1.569 3.481 -1.565 C 3.485 -1.561 3.49 -1.558 3.495 -1.558 C 3.502 -1.557 3.508 -1.558 3.513 -1.563 C 3.519 -1.567 3.521 -1.573 3.521 -1.58 C 3.522 -1.585 3.52 -1.591 3.517 -1.595 C 3.513 -1.599 3.508 -1.602 3.503 -1.602 Z" fill="#ffffff" fill-rule="nonzero"/>
      <path d="M 3.49 -1.828 C 3.492 -1.828 3.497 -1.836 3.496 -1.838 C 3.495 -1.843 3.491 -1.847 3.487 -1.85 C 3.482 -1.853 3.477 -1.854 3.472 -1.852 C 3.47 -1.85 3.467 -1.848 3.467 -1.846 C 3.468 -1.841 3.471 -1.836 3.475 -1.833 C 3.479 -1.829 3.484 -1.827 3.49 -1.828 Z" fill="#ffffff" fill-rule="nonzero"/>
      <path d="M 1.01 -1.299 L 1.01 -1.333 L 1.185 -1.419 L 1.185 -2.602 L 1.01 -2.688 L 1.01 -2.723 L 1.582 -2.723 L 1.582 -2.688 L 1.411 -2.602 L 1.411 -2.093 L 2.112 -2.093 L 2.112 -2.602 L 1.94 -2.688 L 1.94 -2.723 L 2.512 -2.723 L 2.512 -2.688 L 2.337 -2.602 L 2.337 -1.419 L 2.512 -1.333 L 2.512 -1.299 L 1.94 -1.299 L 1.94 -1.333 L 2.112 -1.419 L 2.112 -1.974 L 1.411 -1.974 L 1.411 -1.419 L 1.582 -1.333 L 1.582 -1.299 L 1.01 -1.299" fill="NA" fill-rule="nonzero"/>
    </mask>
  </defs>
</svg>